<svg version="1.1" id="Layer_1" xmlns="http://www.w3.org/2000/svg" xmlns:xlink="http://www.w3.org/1999/xlink" x="0px" y="0px"
	 width="100%" viewBox="0 0 512 512" enable-background="new 0 0 512 512" xml:space="preserve">
<path fill="#FF6C52" opacity="1.000000" stroke="none" 
	d="
M225.000000,1.000000 
	C246.020889,1.000000 267.041779,1.000000 288.259125,1.375636 
	C293.979095,2.832313 299.489441,3.986817 305.028503,4.981369 
	C326.214691,8.785400 346.538422,15.403144 365.952728,24.560482 
	C387.272064,34.616398 406.935211,47.284706 424.648529,63.010975 
	C440.237152,76.850861 454.356110,91.888931 466.497284,108.867996 
	C479.442932,126.972115 489.873474,146.420776 497.443848,167.252014 
	C501.790558,179.212692 504.431549,191.793243 507.559875,203.921631 
	C505.846069,202.359390 504.393646,200.989426 502.982269,199.578384 
	C465.795715,162.400513 428.625977,125.205826 391.389557,88.077980 
	C389.709991,86.403328 387.433594,85.327263 385.235870,83.877243 
	C384.780792,83.676308 384.525024,83.570511 384.269257,83.464706 
	C384.222473,83.623451 384.150391,83.779396 384.132507,83.941338 
	C382.686340,97.019897 380.910919,110.001747 375.360413,122.160896 
	C366.373322,141.848221 351.942169,156.244843 332.554657,166.291016 
	C328.598389,165.474213 325.067261,164.054443 321.506958,163.976990 
	C300.002869,163.509140 278.492126,163.348343 256.520386,163.019196 
	C247.557236,163.007370 239.057312,163.061172 230.119431,163.061096 
	C223.394806,162.913925 217.108154,162.820633 210.643997,162.475952 
	C184.466354,136.176544 158.469666,110.125053 132.449951,84.096573 
	C131.642258,83.288589 130.596146,82.718910 129.526917,82.351013 
	C122.827011,102.178307 115.816719,121.557625 109.833931,141.249115 
	C104.885651,157.535660 105.738289,174.087662 110.633957,190.420486 
	C116.921562,211.397049 131.593506,227.173569 144.019608,244.774246 
	C145.404358,253.695404 146.722610,262.238892 148.003906,270.787964 
	C150.369400,286.570953 152.713257,302.357208 155.044586,318.558563 
	C155.730438,323.971161 156.437851,328.967316 156.986237,334.265381 
	C137.493744,352.909241 130.676895,374.890656 138.095734,400.712036 
	C142.305145,415.363037 151.774109,426.280457 163.976456,435.090210 
	C164.275879,435.490540 164.690430,435.702393 165.060471,435.886353 
	C165.015961,435.858459 165.068787,435.767639 165.015961,436.129028 
	C166.275650,438.163940 167.432968,439.992218 168.923996,441.487793 
	C191.016159,463.647430 213.165833,485.749725 235.248611,507.918671 
	C236.718292,509.394073 237.759506,511.296295 239.000000,513.000000 
	C234.643097,513.000000 230.286194,513.000000 225.738480,512.625671 
	C224.535217,511.835358 223.557190,511.211029 222.504715,511.037048 
	C215.432831,509.867981 208.236740,509.252716 201.282028,507.607697 
	C176.549225,501.757538 152.892151,493.098022 130.732178,480.406433 
	C114.957489,471.371887 99.834038,461.331696 86.719826,448.870819 
	C74.538857,437.296631 63.144081,424.750885 52.509750,411.729218 
	C38.880043,395.039642 28.292826,376.250488 20.209547,356.280975 
	C11.664926,335.171722 4.939710,313.464600 2.897785,290.575348 
	C2.846312,289.998383 1.658072,289.522858 1.000000,289.000000 
	C1.000000,267.645782 1.000000,246.291550 1.366329,224.755981 
	C2.152041,223.729721 2.803374,222.924026 2.953981,222.033646 
	C4.121638,215.130325 4.761666,208.108658 6.369398,201.313965 
	C12.758087,174.313675 22.495260,148.638382 36.985920,124.829483 
	C51.461117,101.045982 69.294594,80.221893 90.370262,62.053085 
	C109.515907,45.548092 130.556992,32.126991 153.725174,22.063137 
	C175.884964,12.437315 198.816299,5.548733 222.928345,2.918339 
	C223.679703,2.836373 224.312134,1.664017 225.000000,1.000000 
z"/>
<path fill="#F92814" opacity="1.000000" stroke="none" 
	d="
M385.435181,83.972374 
	C387.433594,85.327263 389.709991,86.403328 391.389557,88.077980 
	C428.625977,125.205826 465.795715,162.400513 502.982269,199.578384 
	C504.393646,200.989426 505.846069,202.359390 507.648743,204.313568 
	C509.017029,210.360764 509.936493,215.859451 511.072723,221.313004 
	C511.344879,222.619141 512.338318,223.775009 513.000000,225.000000 
	C513.000000,246.020889 513.000000,267.041779 512.596680,288.350494 
	C511.138214,294.002106 509.996063,299.350525 509.043213,304.732452 
	C505.223358,326.307190 498.387939,346.913239 489.060211,366.696442 
	C480.396240,385.071899 470.287567,402.702911 456.559998,417.703766 
	C443.221680,432.279236 429.538849,446.769562 414.462036,459.461670 
	C398.150696,473.192993 379.518555,483.800751 359.686096,492.177856 
	C337.672028,501.476471 315.106873,508.414398 291.300415,511.089813 
	C290.472504,511.182831 289.764099,512.339233 289.000000,513.000000 
	C272.645782,513.000000 256.291534,513.000000 239.468658,513.000000 
	C237.759506,511.296295 236.718292,509.394073 235.248611,507.918671 
	C213.165833,485.749725 191.016159,463.647430 168.923996,441.487793 
	C167.432968,439.992218 166.275650,438.163940 165.378510,436.177856 
	C173.936554,440.642212 182.654358,444.087555 192.107040,444.272400 
	C213.718201,444.694916 235.339401,444.603851 257.418304,444.825256 
	C277.525208,444.874542 297.178772,445.169342 316.813629,444.692749 
	C357.870697,443.696198 386.635864,406.140167 376.922546,366.652893 
	C373.715881,353.616943 366.325531,343.152618 356.934692,333.554077 
	C359.041718,318.983582 361.015564,304.814972 363.110199,290.664276 
	C365.398468,275.205536 367.798584,259.763336 370.441193,244.130585 
	C377.248932,234.897308 383.899536,225.940460 390.256226,216.779663 
	C407.860901,191.409042 411.822327,163.945236 402.290253,134.602310 
	C396.794922,117.685707 391.061462,100.846443 385.435181,83.972374 
z"/>
<path fill="#000000" opacity="1.000000" stroke="none" 
	d="
M513.000000,224.531342 
	C512.338318,223.775009 511.344879,222.619141 511.072723,221.313004 
	C509.936493,215.859451 509.017029,210.360764 507.929260,204.486679 
	C504.431549,191.793243 501.790558,179.212692 497.443848,167.252014 
	C489.873474,146.420776 479.442932,126.972115 466.497284,108.867996 
	C454.356110,91.888931 440.237152,76.850861 424.648529,63.010975 
	C406.935211,47.284706 387.272064,34.616398 365.952728,24.560482 
	C346.538422,15.403144 326.214691,8.785400 305.028503,4.981369 
	C299.489441,3.986817 293.979095,2.832313 288.727783,1.375636 
	C363.593719,1.000000 438.187408,1.000000 513.000000,1.000000 
	C513.000000,75.354088 513.000000,149.708389 513.000000,224.531342 
z"/>
<path fill="#000000" opacity="1.000000" stroke="none" 
	d="
M1.000000,289.468658 
	C1.658072,289.522858 2.846312,289.998383 2.897785,290.575348 
	C4.939710,313.464600 11.664926,335.171722 20.209547,356.280975 
	C28.292826,376.250488 38.880043,395.039642 52.509750,411.729218 
	C63.144081,424.750885 74.538857,437.296631 86.719826,448.870819 
	C99.834038,461.331696 114.957489,471.371887 130.732178,480.406433 
	C152.892151,493.098022 176.549225,501.757538 201.282028,507.607697 
	C208.236740,509.252716 215.432831,509.867981 222.504715,511.037048 
	C223.557190,511.211029 224.535217,511.835358 225.273834,512.625671 
	C150.406296,513.000000 75.812599,513.000000 1.000000,513.000000 
	C1.000000,438.645905 1.000000,364.291626 1.000000,289.468658 
z"/>
<path fill="#000000" opacity="1.000000" stroke="none" 
	d="
M289.468658,513.000000 
	C289.764099,512.339233 290.472504,511.182831 291.300415,511.089813 
	C315.106873,508.414398 337.672028,501.476471 359.686096,492.177856 
	C379.518555,483.800751 398.150696,473.192993 414.462036,459.461670 
	C429.538849,446.769562 443.221680,432.279236 456.559998,417.703766 
	C470.287567,402.702911 480.396240,385.071899 489.060211,366.696442 
	C498.387939,346.913239 505.223358,326.307190 509.043213,304.732452 
	C509.996063,299.350525 511.138214,294.002106 512.596680,288.819153 
	C513.000000,363.593719 513.000000,438.187408 513.000000,513.000000 
	C438.645905,513.000000 364.291626,513.000000 289.468658,513.000000 
z"/>
<path fill="#000000" opacity="1.000000" stroke="none" 
	d="
M224.531342,1.000000 
	C224.312134,1.664017 223.679703,2.836373 222.928345,2.918339 
	C198.816299,5.548733 175.884964,12.437315 153.725174,22.063137 
	C130.556992,32.126991 109.515907,45.548092 90.370262,62.053085 
	C69.294594,80.221893 51.461117,101.045982 36.985920,124.829483 
	C22.495260,148.638382 12.758087,174.313675 6.369398,201.313965 
	C4.761666,208.108658 4.121638,215.130325 2.953981,222.033646 
	C2.803374,222.924026 2.152041,223.729721 1.366329,224.287323 
	C1.000000,149.739456 1.000000,75.478920 1.000000,1.000000 
	C75.354088,1.000000 149.708389,1.000000 224.531342,1.000000 
z"/>
<path fill="#E9EDF5" opacity="1.000000" stroke="none" 
	d="
M370.149963,244.313950 
	C367.798584,259.763336 365.398468,275.205536 363.110199,290.664276 
	C361.015564,304.814972 359.041718,318.983582 356.651276,333.386719 
	C344.532501,324.483582 331.212555,319.327087 316.330017,319.108215 
	C296.583466,318.817780 276.829041,319.064331 257.046783,319.048035 
	C257.015564,319.015930 256.952759,318.952118 256.965088,318.488556 
	C256.979462,266.378296 256.981537,214.731567 256.983612,163.084854 
	C278.492126,163.348343 300.002869,163.509140 321.506958,163.976990 
	C325.067261,164.054443 328.598389,165.474213 332.774719,166.540222 
	C334.093506,167.265305 334.736572,167.815613 335.474060,168.168991 
	C359.779175,179.815475 371.748108,199.315628 371.905487,226.055573 
	C371.941254,232.138046 370.767181,238.227631 370.149963,244.313950 
M319.587036,281.087280 
	C326.659882,278.203827 329.676971,272.457336 327.368439,266.266327 
	C325.276520,260.656128 319.461975,257.630493 313.685394,259.146271 
	C308.303223,260.558502 304.548004,266.292297 305.440338,271.735565 
	C306.510803,278.265442 311.387695,281.719147 319.587036,281.087280 
z"/>
<path fill="#646978" opacity="1.000000" stroke="none" 
	d="
M210.821487,162.727356 
	C217.108154,162.820633 223.394806,162.913925 230.224487,163.425278 
	C239.653107,185.733917 246.098434,208.164093 246.411774,232.042389 
	C246.894913,268.859924 230.110123,295.180084 197.255569,308.536438 
	C183.738831,314.031372 169.574493,316.894623 155.066132,318.142090 
	C152.713257,302.357208 150.369400,286.570953 148.003906,270.787964 
	C146.722610,262.238892 145.404358,253.695404 144.047256,244.315704 
	C142.490158,232.625229 140.672943,221.787949 143.390518,210.838165 
	C148.705307,189.423416 161.912430,174.917694 182.442444,166.321716 
	C192.160919,165.050583 201.491211,163.888977 210.821487,162.727356 
M195.017227,280.980103 
	C196.011978,281.006836 197.008636,281.086945 198.001160,281.051514 
	C203.652313,280.849854 207.333481,277.584595 208.565872,271.717316 
	C209.487411,267.330017 206.915970,262.405640 202.575851,260.246277 
	C196.676651,257.311218 189.944992,259.369934 187.216354,264.943604 
	C183.978165,271.558075 186.591125,277.506439 195.017227,280.980103 
z"/>
<path fill="#E9EDF5" opacity="1.000000" stroke="none" 
	d="
M256.956512,444.721375 
	C235.339401,444.603851 213.718201,444.694916 192.107040,444.272400 
	C182.654358,444.087555 173.936554,440.642212 165.431335,435.816467 
	C165.068787,435.767639 165.015961,435.858459 165.031616,435.618286 
	C164.728714,435.219330 164.410141,435.060547 164.091583,434.901733 
	C151.774109,426.280457 142.305145,415.363037 138.095734,400.712036 
	C130.676895,374.890656 137.493744,352.909241 157.282135,334.115417 
	C173.114899,321.309814 191.100189,318.532043 210.137924,318.941010 
	C225.735748,319.276062 241.347290,318.972565 256.952759,318.952118 
	C256.952759,318.952118 257.015564,319.015930 257.017944,319.506714 
	C256.999054,361.572144 256.977783,403.146759 256.956512,444.721375 
M194.500534,394.310211 
	C210.436646,393.265320 220.988571,380.013916 217.448273,365.491852 
	C214.516953,353.467773 203.365463,345.596008 191.446304,347.137207 
	C179.300751,348.707703 170.539795,358.935089 170.769791,371.274567 
	C171.004959,383.891602 180.201950,393.171326 194.500534,394.310211 
z"/>
<path fill="#E9ECF3" opacity="1.000000" stroke="none" 
	d="
M182.054260,166.431259 
	C161.912430,174.917694 148.705307,189.423416 143.390518,210.838165 
	C140.672943,221.787949 142.490158,232.625229 143.964096,243.940552 
	C131.593506,227.173569 116.921562,211.397049 110.633957,190.420486 
	C105.738289,174.087662 104.885651,157.535660 109.833931,141.249115 
	C115.816719,121.557625 122.827011,102.178307 129.599289,82.783356 
	C130.517883,88.344856 131.040298,93.819603 131.973083,99.223518 
	C137.298096,130.072708 154.020462,152.478943 182.054260,166.431259 
z"/>
<path fill="#CDD1E0" opacity="1.000000" stroke="none" 
	d="
M370.441193,244.130585 
	C370.767181,238.227631 371.941254,232.138046 371.905487,226.055573 
	C371.748108,199.315628 359.779175,179.815475 335.474060,168.168991 
	C334.736572,167.815613 334.093506,167.265305 333.186340,166.557587 
	C351.942169,156.244843 366.373322,141.848221 375.360413,122.160896 
	C380.910919,110.001747 382.686340,97.019897 384.132507,83.941338 
	C384.150391,83.779396 384.222473,83.623451 384.269257,83.464706 
	C384.525024,83.570511 384.780792,83.676308 385.235870,83.877243 
	C391.061462,100.846443 396.794922,117.685707 402.290253,134.602310 
	C411.822327,163.945236 407.860901,191.409042 390.256226,216.779663 
	C383.899536,225.940460 377.248932,234.897308 370.441193,244.130585 
z"/>
<path fill="#FEFEFE" opacity="1.000000" stroke="none" 
	d="
M256.965088,318.488556 
	C241.347290,318.972565 225.735748,319.276062 210.137924,318.941010 
	C191.100189,318.532043 173.114899,321.309814 157.441132,333.813446 
	C156.437851,328.967316 155.730438,323.971161 155.044586,318.558563 
	C169.574493,316.894623 183.738831,314.031372 197.255569,308.536438 
	C230.110123,295.180084 246.894913,268.859924 246.411774,232.042389 
	C246.098434,208.164093 239.653107,185.733917 230.662445,163.479156 
	C239.057312,163.061172 247.557236,163.007370 256.520386,163.019196 
	C256.981537,214.731567 256.979462,266.378296 256.965088,318.488556 
z"/>
<path fill="#F92A16" opacity="1.000000" stroke="none" 
	d="
M182.442444,166.321716 
	C154.020462,152.478943 137.298096,130.072708 131.973083,99.223518 
	C131.040298,93.819603 130.517883,88.344856 129.733582,82.470474 
	C130.596146,82.718910 131.642258,83.288589 132.449951,84.096573 
	C158.469666,110.125053 184.466354,136.176544 210.643997,162.475967 
	C201.491211,163.888977 192.160919,165.050583 182.442444,166.321716 
z"/>
<path fill="#F92814" opacity="1.000000" stroke="none" 
	d="
M163.976456,435.090210 
	C164.410141,435.060547 164.728714,435.219330 165.076141,435.646179 
	C164.690430,435.702393 164.275879,435.490540 163.976456,435.090210 
z"/>
<path fill="#CDD1E0" opacity="1.000000" stroke="none" 
	d="
M257.418304,444.825256 
	C256.977783,403.146759 256.999054,361.572144 257.049164,319.538849 
	C276.829041,319.064331 296.583466,318.817780 316.330017,319.108215 
	C331.212555,319.327087 344.532501,324.483582 356.571289,333.796539 
	C366.325531,343.152618 373.715881,353.616943 376.922546,366.652893 
	C386.635864,406.140167 357.870697,443.696198 316.813629,444.692749 
	C297.178772,445.169342 277.525208,444.874542 257.418304,444.825256 
M340.820679,359.886078 
	C339.999176,358.637451 339.262848,357.321869 338.342590,356.150848 
	C331.659851,347.647186 319.845490,344.820496 310.005890,349.328125 
	C300.332123,353.759766 294.466400,364.637939 296.446716,374.707153 
	C298.347748,384.373260 303.979065,390.996979 313.470947,393.660370 
	C322.748413,396.263519 331.097260,393.849945 337.464050,386.610352 
	C344.245911,378.898743 345.282806,370.013611 340.820679,359.886078 
z"/>
<path fill="#272B2F" opacity="1.000000" stroke="none" 
	d="
M319.216705,281.158325 
	C311.387695,281.719147 306.510803,278.265442 305.440338,271.735565 
	C304.548004,266.292297 308.303223,260.558502 313.685394,259.146271 
	C319.461975,257.630493 325.276520,260.656128 327.368439,266.266327 
	C329.676971,272.457336 326.659882,278.203827 319.216705,281.158325 
z"/>
<path fill="#424A53" opacity="1.000000" stroke="none" 
	d="
M194.612030,280.918701 
	C186.591125,277.506439 183.978165,271.558075 187.216354,264.943604 
	C189.944992,259.369934 196.676651,257.311218 202.575851,260.246277 
	C206.915970,262.405640 209.487411,267.330017 208.565872,271.717316 
	C207.333481,277.584595 203.652313,280.849854 198.001160,281.051514 
	C197.008636,281.086945 196.011978,281.006836 194.612030,280.918701 
z"/>
<path fill="#646A79" opacity="1.000000" stroke="none" 
	d="
M194.046722,394.306580 
	C180.201950,393.171326 171.004959,383.891602 170.769791,371.274567 
	C170.539795,358.935089 179.300751,348.707703 191.446304,347.137207 
	C203.365463,345.596008 214.516953,353.467773 217.448273,365.491852 
	C220.988571,380.013916 210.436646,393.265320 194.046722,394.306580 
z"/>
<path fill="#434B54" opacity="1.000000" stroke="none" 
	d="
M340.971313,360.232880 
	C345.282806,370.013611 344.245911,378.898743 337.464050,386.610352 
	C331.097260,393.849945 322.748413,396.263519 313.470947,393.660370 
	C303.979065,390.996979 298.347748,384.373260 296.446716,374.707153 
	C294.466400,364.637939 300.332123,353.759766 310.005890,349.328125 
	C319.845490,344.820496 331.659851,347.647186 338.342590,356.150848 
	C339.262848,357.321869 339.999176,358.637451 340.971313,360.232880 
z"/>
</svg>